<?xml version="1.0" encoding="UTF-8"?>
<svg width="14" height="14" viewBox="0 0 14 14" version="1.1" xmlns="http://www.w3.org/2000/svg" xmlns:xlink="http://www.w3.org/1999/xlink">
    <title>切片</title>
    <g id="页面-1" stroke="none" stroke-width="1" fill="none" fill-rule="evenodd">
        <g id="形状结合" fill="#000000">
            <path d="M14,13 C14,13.5522847 13.5522847,14 13,14 L3,14 C2.44771525,14 2,13.5522847 2,13 L2,3 C2,2.44771525 2.44771525,2 3,2 L13,2 C13.5522847,2 14,2.44771525 14,3 L14,13 Z M5,3 L3,3 L3,8.5 L9,8.5 C10.1045695,8.5 11,9.3954305 11,10.5 L11,13 L13,13 L13,6.5 L7,6.5 C5.8954305,6.5 5,5.6045695 5,4.5 L5,3 Z M9,9.5 L3,9.5 L3,13 L10,13 L10,10.5 C10,9.98716416 9.61395981,9.56449311 9.11662113,9.506728 L9,9.5 Z M13,3 L6,3 L6,4.5 C6,5.01283584 6.38604019,5.43550689 6.88337887,5.493272 L7,5.5 L13,5.5 L13,3 Z"></path>
        </g>
    </g>
</svg>
