<svg width="20" height="20" viewBox="0 0 20 20" fill="none" xmlns="http://www.w3.org/2000/svg"><path fill-rule="evenodd" clip-rule="evenodd" d="M12.463 2.917c-2.56 0-4.787 1.827-4.787 4.24v4.016c0 .198-.185.346-.384.348-.76.009-1.562.49-1.562 1.32 0 .73.697 1.323 1.557 1.323.746 0 1.564-.515 1.557-1.332V7.156c0-1.62 1.545-3.072 3.62-3.072 2.074 0 3.619 1.452 3.619 3.072 0 1.417-1.098 2.45-2.357 2.878a.16.16 0 0 0-.11.153l.012.83a.15.15 0 0 0 .187.147c1.797-.459 3.435-2.114 3.435-4.008 0-2.412-2.226-4.24-4.787-4.24zm-.005 5.562c-.199.002-.384.15-.384.348v4.017c0 2.412-2.226 4.24-4.787 4.24S2.5 15.255 2.5 12.843c0-1.894 1.638-3.55 3.436-4.008a.15.15 0 0 1 .186.146l.012.831a.16.16 0 0 1-.11.152c-1.258.429-2.356 1.461-2.356 2.879 0 1.62 1.544 3.072 3.62 3.072 2.074 0 3.619-1.452 3.619-3.072V7.159c0-.731.697-1.323 1.556-1.323.86 0 1.557.592 1.557 1.323 0 .83-.802 1.311-1.562 1.32z" fill="#fff"/></svg>