<svg xmlns="http://www.w3.org/2000/svg" xmlns:xlink="http://www.w3.org/1999/xlink" viewBox="0 0 1020 899.43"><defs><style>.cls-1{fill:url(#未命名的渐变_202)}.cls-2{clip-path:url(#clip-path)}.cls-3{fill:url(#未命名的渐变_202-3)}.cls-4{fill:#07c160}</style><linearGradient id="未命名的渐变_202" x1="510" y1="903.19" x2="510" y2="7.51" gradientUnits="userSpaceOnUse"><stop offset="0" stop-color="#d2d2d2"/><stop offset="0" stop-color="#e1e1e1"/><stop offset="1" stop-color="#f4f4f4"/></linearGradient><clipPath id="clip-path"><path id="_剪贴路径_" data-name="&lt;剪贴路径&gt;" class="cls-1" d="M1020 424.75c0 234.61-228.34 424.78-510 424.78a603.76 603.76 0 0 1-166.47-23.28 51.33 51.33 0 0 0-15-2.23c-9.78 0-18.69 3-27.09 7.82l-111.63 64.42c-3.1 1.79-6.12 3.17-9.82 3.17a17 17 0 0 1-17-17c0-4.21 1.66-8.41 2.73-12.43.65-2.39 14.39-53.67 23-85.68a40.42 40.42 0 0 0 1.78-10.82 33.9 33.9 0 0 0-14.28-27.67C68.71 668 0 552.75 0 424.75 0 190.16 228.32 0 510 0s510 190.16 510 424.75"/></clipPath><linearGradient id="未命名的渐变_202-3" x1="-60.99" y1="955.66" x2="-42.11" y2="955.66" gradientTransform="matrix(0 -47.44 -47.44 0 45846.12 -1990.28)" xlink:href="#未命名的渐变_202"/></defs><title>资源 1</title><g id="图层_2" data-name="图层 2"><g id="图层_1-2" data-name="图层 1"><g id="_剪切组_" data-name="&lt;剪切组&gt;"><path id="_剪贴路径_2" data-name="&lt;剪贴路径&gt;" class="cls-1" d="M1020 424.75c0 234.61-228.34 424.78-510 424.78a603.76 603.76 0 0 1-166.47-23.28 51.33 51.33 0 0 0-15-2.23c-9.78 0-18.69 3-27.09 7.82l-111.63 64.42c-3.1 1.79-6.12 3.17-9.82 3.17a17 17 0 0 1-17-17c0-4.21 1.66-8.41 2.73-12.43.65-2.39 14.39-53.67 23-85.68a40.42 40.42 0 0 0 1.78-10.82 33.9 33.9 0 0 0-14.28-27.67C68.71 668 0 552.75 0 424.75 0 190.16 228.32 0 510 0s510 190.16 510 424.75"/><g class="cls-2"><path id="_路径_" data-name="&lt;路径&gt;" class="cls-3" d="M0 0h1020v899.43H0z"/></g></g><path class="cls-4" d="M439.38 242.74l164 86.89v38.88l-164 84v-50.1l112.87-53v-1.72l-112.87-55.06zM795.27 294.47h91.35v91.35h-91.35zM608.88 500.81h167.79v48.94H608.88z"/></g></g></svg>