<svg width="22" height="22" viewBox="0 0 22 22" xmlns="http://www.w3.org/2000/svg"><title>画板</title><defs><linearGradient x1="50%" y1="0%" x2="50%" y2="100%" id="a"><stop stop-color="#FF6B00" offset="0%"/><stop stop-color="#FF0060" offset="100%"/></linearGradient></defs><g fill="none" fill-rule="evenodd"><g transform="translate(2 2)"><circle cx="8" cy="8" r="8" transform="translate(1 1)" fill="#000" fill-rule="nonzero"/><circle cx="8" cy="8" r="8" transform="translate(1 1)" fill="url(#a)"/><circle cx="8" cy="8" r="8" transform="translate(1 1)" fill="url(#a)" fill-rule="nonzero"/><circle cx="8" cy="8" r="8" transform="translate(1 1)" stroke="#FFF" stroke-width="2"/><circle stroke-opacity=".3" stroke="#000" stroke-width=".5" cx="9" cy="9" r="8.25"/></g><rect width="7" height="2" rx=".4" fill="#000" fill-rule="nonzero" transform="translate(9 8)"/><rect width="7" height="2" rx=".4" fill="#FFF" transform="translate(9 8)"/><rect width="7" height="2" rx=".4" fill="#000" fill-rule="nonzero" transform="translate(9 12)"/><rect width="7" height="2" rx=".4" fill="#FFF" transform="translate(9 12)"/><g><rect width="2" height="2" rx=".4" fill="#000" fill-rule="nonzero" transform="translate(6 8)"/><rect width="2" height="2" rx=".4" fill="#FFF" transform="translate(6 8)"/></g><g><rect width="2" height="2" rx=".4" fill="#000" fill-rule="nonzero" transform="translate(6 12)"/><rect width="2" height="2" rx=".4" fill="#FFF" transform="translate(6 12)"/></g></g></svg>